<svg width="16" height="16" viewBox="0 0 16 16" fill="none" xmlns="http://www.w3.org/2000/svg">
<path d="M10.1008 2.31198C10.2229 2.31198 10.345 2.35698 10.4415 2.45341C10.6279 2.63984 10.6279 2.94841 10.4415 3.13484L6.25005 7.32627C5.94148 7.63484 5.94148 8.13627 6.25005 8.44484L10.4415 12.6363C10.6279 12.8227 10.6279 13.1313 10.4415 13.3177C10.255 13.5041 9.94648 13.5041 9.76005 13.3177L5.56862 9.12627C5.24076 8.79841 5.05433 8.35484 5.05433 7.88555C5.05433 7.41627 5.23433 6.9727 5.56862 6.64484L9.76005 2.45341C9.85648 2.36341 9.97862 2.31198 10.1008 2.31198Z" fill="#52018A"/>
</svg>
