<svg width="11" height="10" viewBox="0 0 11 10" fill="none" xmlns="http://www.w3.org/2000/svg">
<path fillRule="evenodd" clipRule="evenodd" d="M10.3 5.11367C10.3 4.75912 10.2682 4.41822 10.2091 4.09094H5.5V6.02504H8.19091C8.075 6.65004 7.72273 7.17958 7.19318 7.53413V8.78868H8.8091C9.75455 7.91822 10.3 6.6364 10.3 5.11367Z" fill="#4285F4"/>
<path fillRule="evenodd" clipRule="evenodd" d="M5.50005 9.99996C6.85005 9.99996 7.98187 9.55223 8.80915 8.78859L7.19323 7.53404C6.74551 7.83404 6.17278 8.01132 5.50005 8.01132C4.19777 8.01132 3.0955 7.13177 2.70232 5.94995H1.03186V7.24541C1.85459 8.8795 3.5455 9.99996 5.50005 9.99996Z" fill="#34A853"/>
<path fillRule="evenodd" clipRule="evenodd" d="M2.70228 5.9501C2.60228 5.6501 2.54546 5.32964 2.54546 5.0001C2.54546 4.67055 2.60228 4.3501 2.70228 4.0501V2.75464H1.03182C0.693182 3.42964 0.5 4.19328 0.5 5.0001C0.5 5.80692 0.693182 6.57055 1.03182 7.24555L2.70228 5.9501Z" fill="#FBBC05"/>
<path fillRule="evenodd" clipRule="evenodd" d="M5.50005 1.98864C6.23414 1.98864 6.89323 2.24091 7.41142 2.73637L8.84551 1.30227C7.9796 0.495455 6.84778 0 5.50005 0C3.5455 0 1.85459 1.12046 1.03186 2.75455L2.70232 4.05001C3.0955 2.86819 4.19777 1.98864 5.50005 1.98864Z" fill="#EA4335"/>
</svg>
