<svg width="81" height="22" viewBox="0 0 81 22" fill="none" xmlns="http://www.w3.org/2000/svg">
<path d="M9.11365 21.5381C6.21448 21.5381 4.05448 20.8181 2.63365 19.3781C1.23208 17.919 0.53125 15.7685 0.53125 12.9269V0.946143H4.24645V12.8981C4.24645 14.7029 4.63048 16.0661 5.39845 16.9877C6.18568 17.9093 7.42408 18.3701 9.11365 18.3701C10.7264 18.3701 11.936 17.9093 12.7424 16.9877C13.568 16.0661 13.9808 14.7029 13.9808 12.8981V0.946143H17.6384V12.9269C17.6384 15.7685 16.9184 17.919 15.4784 19.3781C14.0576 20.8181 11.936 21.5381 9.11365 21.5381ZM21.6484 21.2501V10.4213C21.6484 9.80691 21.6292 9.18294 21.5908 8.54934C21.5716 7.91574 21.5236 7.30131 21.4468 6.70614H24.9316L25.3348 10.6805H24.7588C24.9508 9.72051 25.2676 8.92374 25.7092 8.29014C26.17 7.65654 26.7268 7.18611 27.3796 6.87894C28.0324 6.57177 28.7428 6.41814 29.5108 6.41814C29.8564 6.41814 30.1348 6.43731 30.346 6.47574C30.5572 6.49491 30.7684 6.54297 30.9796 6.61974L30.9508 9.78774C30.586 9.63411 30.2692 9.53817 30.0004 9.49974C29.7508 9.46131 29.434 9.44214 29.05 9.44214C28.2244 9.44214 27.5236 9.61494 26.9476 9.96054C26.3908 10.3061 25.9684 10.7861 25.6804 11.4005C25.4116 12.015 25.2772 12.7157 25.2772 13.5029V21.2501H21.6484ZM32.9546 21.2501V10.4213C32.9546 9.80691 32.9355 9.18294 32.897 8.54934C32.8779 7.91574 32.8298 7.30131 32.753 6.70614H36.2379L36.641 10.6805H36.065C36.257 9.72051 36.5738 8.92374 37.0154 8.29014C37.4762 7.65654 38.0333 7.18611 38.6858 6.87894C39.3383 6.57177 40.0493 6.41814 40.817 6.41814C41.1626 6.41814 41.4407 6.43731 41.6522 6.47574C41.8637 6.49491 42.0743 6.54297 42.2859 6.61974L42.2571 9.78774C41.8926 9.63411 41.5758 9.53817 41.3067 9.49974C41.0574 9.46131 40.7405 9.44214 40.3562 9.44214C39.5309 9.44214 38.8298 9.61494 38.2538 9.96054C37.697 10.3061 37.2747 10.7861 36.9866 11.4005C36.7178 12.015 36.5835 12.7157 36.5835 13.5029V21.2501H32.9546ZM44.2901 21.2501V6.70614H47.8901V21.2501H44.2901ZM44.0885 3.97014V0.456543H48.0917V3.97014H44.0885ZM58.4804 21.5381C56.9828 21.5381 55.6679 21.231 54.5349 20.6165C53.4216 20.0021 52.5575 19.1286 51.9428 17.9957C51.329 16.8437 51.0213 15.4805 51.0213 13.9061C51.0213 12.3318 51.329 10.9877 51.9428 9.87414C52.5764 8.76057 53.4503 7.90611 54.5636 7.31094C55.6778 6.71577 56.9828 6.41814 58.4804 6.41814C59.4408 6.41814 60.3723 6.57177 61.2741 6.87894C62.1957 7.16694 62.9445 7.58931 63.5205 8.14614L62.4261 10.6517C61.9076 10.1718 61.3227 9.81654 60.6693 9.58614C60.0357 9.33657 59.412 9.21174 58.7973 9.21174C57.5112 9.21174 56.5032 9.61494 55.7733 10.4213C55.0631 11.2277 54.7077 12.3989 54.7077 13.9349C54.7077 15.471 55.0631 16.6518 55.7733 17.4773C56.5032 18.3029 57.5112 18.7157 58.7973 18.7157C59.3931 18.7157 60.0068 18.6005 60.6404 18.3701C61.2938 18.1397 61.8888 17.7845 62.4261 17.3045L63.5205 19.7813C62.9256 20.3382 62.1669 20.7702 61.2453 21.0773C60.3435 21.3845 59.4218 21.5381 58.4804 21.5381ZM71.8437 21.5381C70.5765 21.5381 69.4623 21.2405 68.502 20.6453C67.5426 20.0309 66.7937 19.1574 66.2564 18.0245C65.7182 16.8917 65.4501 15.5381 65.4501 13.9637C65.4501 12.3894 65.7182 11.0453 66.2564 9.93174C66.7937 8.79891 67.5426 7.93491 68.502 7.33974C69.4623 6.72531 70.5765 6.41814 71.8437 6.41814C73.0722 6.41814 74.1477 6.72531 75.0693 7.33974C76.0098 7.93491 76.6335 8.74131 76.9413 9.75894H76.6245L76.9413 6.70614H80.3973C80.3397 7.30131 80.2821 7.90611 80.2244 8.52054C80.1858 9.13497 80.1669 9.73977 80.1669 10.3349V21.2501H76.5957L76.5669 18.2549H76.9124C76.6046 19.2533 75.981 20.0502 75.0405 20.6453C74.0991 21.2405 73.0335 21.5381 71.8437 21.5381ZM72.8517 18.7733C73.9838 18.7733 74.8965 18.3798 75.5877 17.5925C76.2789 16.7861 76.6245 15.5765 76.6245 13.9637C76.6245 12.3509 76.2789 11.151 75.5877 10.3637C74.8965 9.57651 73.9838 9.18294 72.8517 9.18294C71.7186 9.18294 70.8069 9.57651 70.1157 10.3637C69.4245 11.151 69.0788 12.3509 69.0788 13.9637C69.0788 15.5765 69.4145 16.7861 70.0868 17.5925C70.778 18.3798 71.6997 18.7733 72.8517 18.7733Z" fill="white"/>
</svg>
