<svg width="147" height="40" viewBox="0 0 147 40" fill="none" xmlns="http://www.w3.org/2000/svg">
<path d="M20 40C31.0457 40 40 31.0457 40 20C40 8.95429 31.0457 0 20 0C8.95429 0 0 8.95429 0 20C0 31.0457 8.95429 40 20 40Z" fill="#FAD360" fill-opacity="0.5"/>
<g filter="url(#filter0_i_51_10326)">
<path d="M19.9998 30.1041C25.5227 30.1041 30 25.6269 30 20.1039C30 14.581 25.5227 10.1038 19.9998 10.1038C14.4769 10.1038 9.99963 14.581 9.99963 20.1039C9.99963 25.6269 14.4769 30.1041 19.9998 30.1041Z" fill="#DBB954" fill-opacity="0.5"/>
</g>
<path d="M66.656 30.884C65.056 30.884 63.6053 30.5747 62.304 29.956C61.024 29.316 60 28.3453 59.232 27.044C58.4853 25.7427 58.112 24.0893 58.112 22.084V8.1H61.504V22.116C61.504 24.0787 61.9733 25.5187 62.912 26.436C63.8507 27.3533 65.12 27.812 66.72 27.812C68.2987 27.812 69.5573 27.3533 70.496 26.436C71.4347 25.5187 71.904 24.0787 71.904 22.116V8.1H75.296V22.084C75.296 24.0893 74.9013 25.7427 74.112 27.044C73.344 28.3453 72.2987 29.316 70.976 29.956C69.6747 30.5747 68.2347 30.884 66.656 30.884ZM79.519 30.5V14.628H82.559L82.847 17.636C83.4017 16.5907 84.1697 15.7693 85.151 15.172C86.1537 14.5533 87.359 14.244 88.767 14.244V17.796H87.839C86.9003 17.796 86.0577 17.956 85.311 18.276C84.5857 18.5747 83.999 19.0973 83.551 19.844C83.1243 20.5693 82.911 21.5827 82.911 22.884V30.5H79.519ZM91.6753 30.5V14.628H94.7153L95.0033 17.636C95.5579 16.5907 96.3259 15.7693 97.3073 15.172C98.3099 14.5533 99.5153 14.244 100.923 14.244V17.796H99.9953C99.0566 17.796 98.2139 17.956 97.4673 18.276C96.7419 18.5747 96.1553 19.0973 95.7073 19.844C95.2806 20.5693 95.0673 21.5827 95.0673 22.884V30.5H91.6753ZM105.752 11.62C105.112 11.62 104.578 11.428 104.152 11.044C103.746 10.6387 103.544 10.1373 103.544 9.54C103.544 8.94267 103.746 8.452 104.152 8.068C104.578 7.66267 105.112 7.46 105.752 7.46C106.392 7.46 106.914 7.66267 107.32 8.068C107.746 8.452 107.96 8.94267 107.96 9.54C107.96 10.1373 107.746 10.6387 107.32 11.044C106.914 11.428 106.392 11.62 105.752 11.62ZM104.056 30.5V14.628H107.448V30.5H104.056ZM119.445 30.884C117.888 30.884 116.491 30.532 115.253 29.828C114.037 29.124 113.077 28.1533 112.373 26.916C111.691 25.6573 111.349 24.2067 111.349 22.564C111.349 20.9213 111.691 19.4813 112.373 18.244C113.077 16.9853 114.037 16.004 115.253 15.3C116.491 14.596 117.888 14.244 119.445 14.244C121.408 14.244 123.051 14.756 124.373 15.78C125.717 16.804 126.581 18.1907 126.965 19.94H123.413C123.2 19.0653 122.731 18.3827 122.005 17.892C121.28 17.4013 120.427 17.156 119.445 17.156C118.613 17.156 117.845 17.3693 117.141 17.796C116.437 18.2013 115.872 18.8093 115.445 19.62C115.019 20.4093 114.805 21.3907 114.805 22.564C114.805 23.7373 115.019 24.7293 115.445 25.54C115.872 26.3293 116.437 26.9373 117.141 27.364C117.845 27.7907 118.613 28.004 119.445 28.004C120.427 28.004 121.28 27.7587 122.005 27.268C122.731 26.7773 123.2 26.084 123.413 25.188H126.965C126.603 26.8947 125.749 28.2707 124.405 29.316C123.061 30.3613 121.408 30.884 119.445 30.884ZM136.02 30.884C134.676 30.884 133.567 30.66 132.692 30.212C131.817 29.764 131.167 29.1773 130.74 28.452C130.313 27.7053 130.1 26.8947 130.1 26.02C130.1 24.484 130.697 23.268 131.892 22.372C133.087 21.476 134.793 21.028 137.012 21.028H141.172V20.74C141.172 19.5027 140.831 18.5747 140.148 17.956C139.487 17.3373 138.623 17.028 137.556 17.028C136.617 17.028 135.796 17.2627 135.092 17.732C134.409 18.18 133.993 18.852 133.844 19.748H130.452C130.559 18.596 130.943 17.6147 131.604 16.804C132.287 15.972 133.14 15.3427 134.164 14.916C135.209 14.468 136.351 14.244 137.588 14.244C139.807 14.244 141.524 14.8307 142.74 16.004C143.956 17.156 144.564 18.7347 144.564 20.74V30.5H141.62L141.332 27.78C140.884 28.6547 140.233 29.3907 139.38 29.988C138.527 30.5853 137.407 30.884 136.02 30.884ZM136.692 28.132C137.609 28.132 138.377 27.9187 138.996 27.492C139.636 27.044 140.127 26.4573 140.468 25.732C140.831 25.0067 141.055 24.2067 141.14 23.332H137.364C136.02 23.332 135.06 23.5667 134.484 24.036C133.929 24.5053 133.652 25.092 133.652 25.796C133.652 26.5213 133.919 27.0973 134.452 27.524C135.007 27.9293 135.753 28.132 136.692 28.132Z" fill="#050505"/>
<defs>
<filter id="filter0_i_51_10326" x="9.99963" y="10.1038" width="20.0003" height="20.0004" filterUnits="userSpaceOnUse" color-interpolation-filters="sRGB">
<feFlood flood-opacity="0" result="BackgroundImageFix"/>
<feBlend mode="normal" in="SourceGraphic" in2="BackgroundImageFix" result="shape"/>
<feColorMatrix in="SourceAlpha" type="matrix" values="0 0 0 0 0 0 0 0 0 0 0 0 0 0 0 0 0 0 127 0" result="hardAlpha"/>
<feOffset dy="33.5596"/>
<feGaussianBlur stdDeviation="2"/>
<feComposite in2="hardAlpha" operator="arithmetic" k2="-1" k3="1"/>
<feColorMatrix type="matrix" values="0 0 0 0 0 0 0 0 0 0 0 0 0 0 0 0 0 0 0.1 0"/>
<feBlend mode="normal" in2="shape" result="effect1_innerShadow_51_10326"/>
</filter>
</defs>
</svg>
