<svg width="38" height="38" viewBox="0 0 38 38" fill="none" xmlns="http://www.w3.org/2000/svg">
<circle cx="19" cy="19" r="19" fill="#FCE7AB" fill-opacity="0.5"/>
<path d="M30 10C29.0424 10.6755 27.9821 11.1922 26.86 11.53C26.2577 10.8376 25.4573 10.3467 24.567 10.124C23.6767 9.90121 22.7395 9.95724 21.8821 10.2845C21.0247 10.6118 20.2884 11.1944 19.773 11.9538C19.2575 12.7131 18.9877 13.6124 19 14.53V15.53C17.2426 15.5756 15.5013 15.1859 13.931 14.3955C12.3607 13.6051 11.0103 12.4387 10 11C10 11 6 20 15 24C12.9405 25.398 10.4872 26.099 8 26C17 31 28 26 28 14.5C27.9991 14.2215 27.9723 13.9436 27.92 13.67C28.9406 12.6635 29.6608 11.3928 30 10V10Z" stroke="#E6B800" strokeWidth="1.5" strokeLinecap="round" strokeLinejoin="round"/>
</svg>
